HIERARCHY
ROOT simHips
{
  OFFSET -170.184 99.7213 129.156
  CHANNELS 6 Xposition Yposition Zposition Zrotation Xrotation Yrotation
  JOINT simSpine
  {
    OFFSET -0.000355721 21.3001 -0.016921
    CHANNELS 3 Zrotation Xrotation Yrotation
    JOINT simLeftArm
    {
      OFFSET 13.5181 21.3012 0
      CHANNELS 3 Zrotation Xrotation Yrotation
      JOINT simLeftForeArm
      {
        OFFSET 24.5783 0 0
        CHANNELS 3 Zrotation Xrotation Yrotation
        JOINT simLeftHand
        {
          OFFSET 24.5783 0 0
          CHANNELS 3 Zrotation Xrotation Yrotation
          End Site
          {
            OFFSET 7.32568 1.52588e-05 0.0169305
          }
        }
      }
    }
    JOINT simHead
    {
      OFFSET 0 27.4458 -0.00489235
      CHANNELS 3 Zrotation Xrotation Yrotation
      End Site
      {
        OFFSET 0 0 0
      }
    }
    JOINT simRightArm
    {
      OFFSET -13.5174 21.3012 0
      CHANNELS 3 Zrotation Xrotation Yrotation
      JOINT simRightForeArm
      {
        OFFSET -24.5783 0 0
        CHANNELS 3 Zrotation Xrotation Yrotation
        JOINT simRightHand
        {
          OFFSET -24.5783 0 0
          CHANNELS 3 Zrotation Xrotation Yrotation
          End Site
          {
            OFFSET -7.32568 1.52588e-05 0.0169305
          }
        }
      }
    }
  }
  JOINT simRightUpLeg
  {
    OFFSET -8.44614 -9.41038 0.835684
    CHANNELS 3 Zrotation Xrotation Yrotation
    JOINT simRightLeg
    {
      OFFSET 0 -40.9639 0
      CHANNELS 3 Zrotation Xrotation Yrotation
      JOINT simRightFoot
      {
        OFFSET 0 -40.9639 0
        CHANNELS 3 Zrotation Xrotation Yrotation
        End Site
        {
          OFFSET 0.50614 -9.67405 14.6709
        }
      }
    }
  }
  JOINT simLeftUpLeg
  {
    OFFSET 8.44614 -9.41038 0.835684
    CHANNELS 3 Zrotation Xrotation Yrotation
    JOINT simLeftLeg
    {
      OFFSET 0 -40.9639 0
      CHANNELS 3 Zrotation Xrotation Yrotation
      JOINT simLeftFoot
      {
        OFFSET 0 -40.9639 0
        CHANNELS 3 Zrotation Xrotation Yrotation
        End Site
        {
          OFFSET -0.50614 -9.67405 14.6709
        }
      }
    }
  }
}
MOTION
Frames:	24
Frame Time:	0.0333333
-76.819 61.1184 91.6516 32.3214 -12.2425 168.901 -22.5251 65.3597 1.20754 22.6538 20.5287 -26.1616 7.59109 0.318019 -9.31256 34.613 -2.11539 46.8098 43.3262 4.98199 -28.3851 79.3363 39.8557 -7.48195 -35.2531 -13.1161 36.1773 -18.2884 11.7019 -9.82199 -31.6905 -56.9699 -23.9684 5.97305 27.8394 -1.1241 23.6148 26.5222 6.94523 52.9643 -64.1578 28.007 -149.94 47.7828 116.467 48.9382 -18.1736 40.3693 
-69.425 62.9962 93.8776 34.0787 -3.88876 -179.441 -8.62955 65.127 -12.8775 32.956 15.5057 -36.6393 -1.80961 -0.188469 -4.25481e-05 -2.25604 0.688272 0.608975 45.4295 6.95834 -33.3402 73.9588 40.9638 -4.76111 -38.0566 -15.3515 39.0842 -16.7388 10.336 -7.1229 -28.9071 -67.7687 -21.9331 12.9447 43.9046 -3.82792 24.4769 12.7643 11.9221 57.0003 -62.0251 27.5456 -149.117 48.4404 115.804 46.8614 -19.9782 40.5251 
-60.8731 64.753 93.6292 31.8539 5.25256 -165.94 1.7135 62.1859 -22.32 36.7287 14.4604 -44.4973 5.56938 0.354061 -6.83352 3.59548 3.71022 -0.972748 44.6329 5.10774 -36.6834 72.8231 41.9917 -4.77801 -39.9151 -16.951 41.0166 -17.9657 9.12243 -7.88866 -26.3401 -75.5356 -20.2802 19.0584 55.6084 -7.55495 20.9831 -0.120341 9.79446 58.2632 -60.4038 25.9694 -147.558 49.6511 114.605 45.0697 -21.4967 40.061 
-52.7084 66.3909 90.7433 24.9438 13.4844 -150.484 5.57118 58.6898 -25.0935 43.0902 12.5734 -49.28 18.1388 -1.31287 -22.3097 13.4424 12.824 -0.502256 40.9324 -0.539648 -30.5167 74.6449 42.116 -4.41981 -39.3359 -16.4423 40.4139 -15.4334 4.54323 -6.79603 -19.1086 -79.2943 -13.1521 27.4779 65.0444 -14.3664 18.82 -4.90548 9.47709 55.3939 -58.3107 22.9292 -144.801 51.5966 112.51 43.5775 -21.8653 39.4927 
-46.2207 67.8331 85.736 14.7935 18.5614 -133.045 6.64935 54.8749 -23.4817 42.5248 3.62623 -52.9666 26.2855 -4.33863 -32.53 15.1518 12.0605 -1.74863 34.0048 -6.41721 -9.65735 76.3745 42.3184 -4.30829 -36.3508 -13.9668 37.3148 -12.1165 -1.68118 -5.04798 -7.34774 -79.0727 -1.86169 40.0271 72.1799 -25.6963 16.5564 -8.17399 11.8058 50.4451 -55.65 18.7589 -140.971 53.953 109.479 41.2006 -22.7236 36.4502 
-42.3002 69.2274 79.4802 3.95287 18.8327 -114.189 8.25383 50.3758 -20.512 35.4111 -5.85036 -55.7679 29.444 -5.9747 -36.5707 20.0122 13.1211 -1.74271 21.3872 -9.06064 21.3168 76.0228 41.5881 -5.59471 -33.3816 -11.7382 34.2413 -10.6617 3.36545 -3.04092 -5.28683 -75.6691 -0.9202 54.2251 76.0721 -39.135 17.0132 -10.7161 15.5379 44.7953 -52.8871 14.2325 -135.689 56.6608 105.046 36.1678 -25.4112 28.2766 
-40.7529 71.0977 73.1834 -4.91142 13.8462 -96.0418 6.29941 46.6471 -13.1986 26.4516 -14.717 -59.7901 29.3108 -5.89968 -36.3985 19.9208 20.6497 -1.33641 7.25149 -10.6467 48.9365 75.6452 40.8701 -9.22723 -29.6411 -9.24569 30.3803 -12.0943 2.12764 -2.54281 -6.9356 -69.9835 0.180993 53.1345 75.8656 -38.0641 17.7378 -11.0738 17.7963 39.9223 -50.0061 11.9931 -129.096 59.2832 99.4126 28.6255 -24.955 12.3775 
-40.6906 73.2231 67.1675 -8.79645 5.90722 -79.2184 -1.20607 43.038 -3.08371 20.0965 -19.5379 -65.2982 26.3036 -4.3453 -32.5488 20.2167 22.0871 -2.97229 0.618552 -14.0882 64.0298 72.9432 47.1022 -12.3243 -24.1972 -6.20562 24.7778 -8.90104 0.557867 -1.80725 -11.15 -62.7666 3.09104 32.8991 68.8595 -19.0003 14.5138 -9.30206 15.1343 36.4428 -47.9993 12.6161 -118.25 62.2811 90.0639 23.9806 -20.9798 -9.98621 
-42.3179 74.8411 61.7386 -7.84341 -0.556874 -62.7676 -10.0503 38.9648 4.61125 17.538 -19.4671 -66.7267 22.7624 -2.82563 -28.0748 22.5453 17.4765 -3.49996 0.394265 -19.0501 69.7179 67.318 57.374 -16.1431 -24.0137 -6.10604 24.5783 -8.93076 7.03035 2.24227 -17.7148 -54.4397 5.56909 18.5387 54.9028 -6.97535 16.3477 -1.52826 6.8505 41.3695 -49.5009 18.3084 -100.645 64.6168 73.9285 -9.8133 -10.8432 -31.6481 
-45.6834 76.0041 57.8935 -7.01714 -3.53165 -46.528 -16.3603 35.8462 8.03023 18.1106 -17.1131 -62.7336 19.2793 -1.63729 -23.7218 22.2856 19.7954 -4.01963 5.44775 -20.1435 73.4532 51.3837 56.0593 -6.94883 -24.2592 -6.23619 24.8413 -8.04525 5.2747 1.19996 -23.9044 -49.1094 3.11196 21.7789 59.5264 -9.31084 13.5251 -7.6049 -4.20991 47.4827 -49.7869 24.4472 -77.991 64.4576 53.5249 -5.9624 -9.60081 -12.9882 
-49.2172 76.9472 56.2353 -8.1658 -4.96592 -31.8521 -20.1196 34.9689 10.0638 17.4284 -15.3743 -58.5287 14.8618 -0.54096 -18.2498 21.7179 20.4925 -3.87837 12.3577 -20.914 74.7813 35.3097 41.9617 7.55575 -25.7833 -7.02233 26.4087 -11.423 3.20784 -3.44588 -29.487 -40.7257 -7.12609 24.7603 62.9013 -11.5997 11.6076 -13.55 -9.43305 52.2796 -49.6308 21.5815 -63.2553 62.3573 40.4836 7.80541 -10.5465 4.56721 
-52.2989 77.8591 57.0534 -7.97494 -6.67753 -20.7981 -26.2415 32.1816 12.7956 12.7822 -12.1789 -54.3066 12.9776 -0.207304 -15.9275 20.5009 17.4724 -2.76282 20.9611 -20.4361 72.9354 28.1212 21.2876 23.8995 -28.5245 -8.56686 29.2306 -13.5693 0.245206 0.675361 -35.1175 -31.0969 -17.6481 26.3837 64.4875 -12.8702 10.4248 -17.6868 -9.68055 53.0375 -45.9144 14.3674 -53.364 59.7186 32.2788 18.4156 0.929239 18.9334 
-53.7226 79.2972 60.3901 -8.85037 -8.14281 -12.4405 -28.3452 28.0425 14.7594 3.32354 -6.43642 -50.4597 12.2826 -0.10489 -15.0759 19.4823 18.7854 -1.66627 24.2759 -17.9841 65.2537 25.447 4.73655 43.407 -31.4125 -10.3992 32.2331 -14.4044 2.13671 5.30442 -36.2254 -19.6444 -23.4754 24.0576 62.3004 -10.826 10.1241 -19.5217 -10.3681 50.5923 -36.3033 6.13472 -44.3093 56.0525 24.6499 17.9964 5.19996 22.7562 
-52.6522 81.0564 65.2264 -10.7433 -8.39994 -0.791666 -23.6968 23.6751 15.9006 -6.98236 5.43942 -48.723 12.9014 -0.195934 -15.8354 17.0632 19.3971 -0.879747 23.3334 -17.6086 51.8509 21.1662 -6.00425 53.3391 -37.4913 -14.8823 38.4939 -17.1795 0.527843 4.01724 -33.6167 -6.15743 -26.2078 17.9659 54.2734 -5.98079 10.6733 -16.9295 -14.9218 49.164 -32.61 0.219649 -36.944 51.8393 17.6536 -10.8935 -16.4914 19.805 
-50.6581 83.4336 69.6748 -9.35421 -9.49943 13.0346 -23.3078 22.7619 22.7144 -8.28287 19.5337 -51.4101 13.4661 -0.286381 -16.53 15.599 18.976 0.589194 21.588 -25.6162 37.3109 13.2144 -22.0709 55.6988 -41.5368 -18.4294 42.7096 -22.8198 -3.41569 0.127944 -29.1709 5.02398 -16.1969 13.8942 46.1756 -3.28483 13.086 -9.38999 -24.4642 43.5595 -38.3871 0.527903 -37.3083 52.1089 18.2898 1.80246 -7.72314 13.4042 
-47.3395 85.8707 75.0127 -7.27732 -9.53662 25.7702 -21.9177 18.7246 27.7364 -14.5261 33.3788 -48.7259 14.1141 -0.399402 -17.329 13.5215 19.4724 3.55069 16.3021 -27.285 18.9062 4.5597 -29.7675 57.9615 -44.9975 -21.8491 46.3412 -24.5173 0.48365 -3.14542 -24.9499 12.5074 -7.13532 12.7011 43.0365 -3.09474 18.4489 8.16983 -32.9065 34.6817 -38.3818 -5.63039 -33.4725 49.3851 15.158 -2.49818 -12.7668 8.60313 
-43.1248 88.7982 79.3278 -7.23216 -8.64993 34.7783 -19.861 14.5309 28.8955 -32.7728 37.3664 -30.2762 16.1225 -0.807971 -19.8055 11.4866 20.4598 7.75877 12.4085 -28.9253 6.87689 -0.486213 -32.2993 65.1434 -47.0164 -23.9821 48.447 -25.0792 5.53431 -3.43612 -20.6502 12.0648 -6.99346 14.3656 46.7089 -5.26428 16.5169 30.8933 -12.5346 29.3925 -37.0277 -8.06236 -29.822 46.3497 12.4933 -0.934219 -14.0086 2.88154 
-38.8596 92.5832 82.3173 -8.23431 -10.3862 40.8824 -16.6937 11.1959 26.7094 -51.3195 30.8178 -3.33308 17.6122 -1.16969 -21.6461 15.4569 11.7797 11.7778 14.4331 -28.712 -0.456528 -2.63504 -22.2941 65.575 -47.8062 -24.8642 49.2828 -28.905 9.07472 -6.70849 -18.284 4.98615 -12.9504 21.7506 58.744 -11.1925 21.6113 37.8206 -9.19953 27.3707 -31.2388 -9.32493 -23.9041 40.2899 8.48216 0.51136 -13.5281 -2.41273 
-34.6391 96.5208 84.4885 -7.06352 -15.4564 44.4536 -12.6018 8.96356 26.2073 -55.7588 20.9894 15.1771 14.3596 -0.444371 -17.6302 14.183 2.88339 14.5683 16.6616 -21.5088 -7.91862 1.85339 -4.46372 58.8418 -44.584 -21.4041 45.8923 -26.3087 14.4073 -6.08858 -18.0078 -4.80643 -15.1065 50.9363 74.9693 -37.761 21.6797 35.9456 -10.8598 25.8418 -20.6226 -13.4283 -18.2794 32.9991 5.22422 2.47548 -10.388 -3.97914 
-30.5053 99.944 86.1867 -4.57313 -21.336 47.2524 -7.51137 6.79739 27.9062 -48.3562 9.23743 25.1941 12.4956 -0.134708 -15.3345 17.3248 -10.8286 23.2361 16.6396 -7.39491 -15.4753 9.07585 11.5053 47.9334 -31.8883 -10.7017 32.6981 -15.7509 11.5785 -7.1763 -19.0132 -16.7727 -16.1848 127.724 76.3898 -112.57 27.4223 39.4956 -12.1137 26.366 -10.5828 -13.3941 -15.4039 28.7172 3.9094 4.44422 -3.21063 -5.26807 
-27.0824 102.646 87.9427 1.24722 -27.6896 57.6283 -3.21594 9.20411 26.0685 -31.0504 2.31937 24.173 15.4209 -0.655087 -18.94 23.1171 -8.82835 24.0629 16.6349 3.06961 -22.4981 17.9717 19.6196 34.3661 -10.317 -1.28444 10.55 -14.0831 11.2783 -5.09474 -23.784 -25.8454 -20.7444 157.187 65.7896 -140.631 33.9288 42.8239 -14.2642 28.9906 -7.69676 -10.0707 -18.5694 33.4699 5.78537 4.6782 6.40989 -5.93395 
-24.4936 104.237 90.3908 13.9521 -33.9285 80.4862 2.27911 18.1552 20.3337 -9.2686 3.88946 7.67902 16.4947 -0.894178 -20.2676 25.1421 -6.3521 15.8228 17.2059 3.85608 -29.2325 29.4059 25.1845 12.8492 6.99945 0.666169 0.00412911 -9.99848 4.90724 -5.95529 -33.112 -27.2917 -24.3444 166.032 56.8574 -148.438 34.153 43.6171 -12.6603 34.0456 -9.69839 -10.1514 -26.194 42.8483 10.8214 7.8182 13.1951 6.90618 
-22.0813 105.17 93.9424 29.4787 -36.292 107.932 8.72884 26.3027 10.522 15.2516 -1.64157 -11.9938 18.8782 -1.51919 -23.2233 28.2886 -3.88461 12.022 24.0354 -0.34965 -34.9721 54.8973 32.3817 -13.0634 11.7329 1.6484 -0.000649851 -3.288 -3.63921 -11.541 -41.6888 -26.5998 -18.8525 167.783 54.4825 -149.636 28.9447 45.2718 -8.12307 43.2075 -14.333 -8.18313 -33.7953 49.6165 16.342 11.5093 12.7768 16.4271 
-19.4076 105.667 97.9663 43.1551 -33.7276 132.069 12.6866 32.7866 -5.07534 42.7881 -11.0465 -25.3265 20.5421 -2.0408 -25.3129 30.0844 -1.09676 9.92659 35.6029 -2.98913 -38.059 83.3582 24.7806 -30.7552 5.91702 0.502826 1.55334e-05 -8.6353 -4.41604 -21.6736 -48.7034 -25.2088 -8.70128 161.362 62.7539 -143.67 23.6659 43.5126 -10.354 52.4815 -19.3436 -1.0206 -37.511 52.2209 19.106 13.1118 12.2508 16.5891 
